<svg width="14" height="14" viewBox="0 0 14 14" fill="none" xmlns="http://www.w3.org/2000/svg">
<path id="Vector" d="M6.95041 7.71074C6.67655 7.71074 6.45455 7.48874 6.45455 7.21488V1.49587C6.45455 1.22201 6.67655 1 6.95041 1C7.22427 1 7.44628 1.22201 7.44628 1.49587V7.21488C7.44628 7.48874 7.22427 7.71074 6.95041 7.71074ZM6.95041 13C6.13499 13 5.36639 12.843 4.64463 12.5289C3.92286 12.2149 3.29201 11.7879 2.75207 11.2479C2.21212 10.708 1.78512 10.0771 1.47107 9.35537C1.15702 8.63361 1 7.86501 1 7.04959C1 6.16804 1.18733 5.34435 1.56198 4.57851C1.87415 3.94041 2.29342 3.36159 2.81979 2.84206C2.99954 2.66463 3.28734 2.67577 3.46594 2.85437C3.66753 3.05596 3.64853 3.38644 3.44602 3.58712C3.04886 3.98067 2.72663 4.42684 2.47934 4.92562C2.15427 5.58127 1.99174 6.28913 1.99174 7.04922C1.99174 8.42688 2.47383 9.5978 3.43802 10.562C4.4022 11.5262 5.573 12.0083 6.95041 12.0083C8.33176 12.0083 9.50354 11.5262 10.4658 10.562C11.428 9.5978 11.9091 8.42688 11.9091 7.04922C11.9091 6.28913 11.7466 5.57576 11.4215 4.90909C11.1796 4.41292 10.872 3.97627 10.4988 3.59912C10.2933 3.39141 10.275 3.05163 10.484 2.84745C10.664 2.67164 10.9499 2.66031 11.1295 2.83658C11.6355 3.33337 12.0414 3.90575 12.3471 4.55372C12.7163 5.33609 12.9008 6.16804 12.9008 7.04959C12.9008 7.86501 12.7438 8.63361 12.4298 9.35537C12.1157 10.0771 11.6915 10.708 11.157 11.2479C10.6226 11.7879 9.99449 12.2149 9.27273 12.5289C8.55096 12.843 7.77686 13 6.95041 13Z" fill="#C7152A" stroke="#C7152A" stroke-width="0.5"/>
</svg>
