<svg width="24" height="24" viewBox="0 0 24 24" fill="none" xmlns="http://www.w3.org/2000/svg">
<mask id="mask0_372_431" style="mask-type:alpha" maskUnits="userSpaceOnUse" x="0" y="0" width="24" height="24">
<rect width="24" height="24" fill="#FF9704"/>
</mask>
<g mask="url(#mask0_372_431)">
<path d="M3.99999 19V17H5.99999V10C5.99999 8.61667 6.41666 7.3875 7.24999 6.3125C8.08333 5.2375 9.16666 4.53333 10.5 4.2V3.5C10.5 3.08333 10.6458 2.72917 10.9375 2.4375C11.2292 2.14583 11.5833 2 12 2C12.4167 2 12.7708 2.14583 13.0625 2.4375C13.3542 2.72917 13.5 3.08333 13.5 3.5V4.2C14.8333 4.53333 15.9167 5.2375 16.75 6.3125C17.5833 7.3875 18 8.61667 18 10V17H20V19H3.99999ZM12 22C11.45 22 10.9792 21.8042 10.5875 21.4125C10.1958 21.0208 9.99999 20.55 9.99999 20H14C14 20.55 13.8042 21.0208 13.4125 21.4125C13.0208 21.8042 12.55 22 12 22Z" fill="#FF9704"/>
</g>
</svg>
