<svg width="32" height="32" viewBox="0 0 32 32" fill="none" xmlns="http://www.w3.org/2000/svg">
<path d="M31.043 13.1871H28.6657C28.0644 13.1871 27.5231 12.8218 27.298 12.2641L26.6151 10.5717C26.3938 10.0231 26.5217 9.39539 26.94 8.97705L28.6081 7.30897C28.8979 7.01919 28.8979 6.54465 28.6081 6.25486L25.7096 3.35635C25.4198 3.06657 24.9453 3.06657 24.6555 3.35635L22.9744 5.03743C22.5491 5.4628 21.908 5.58714 21.3548 5.3518L19.6755 4.63806C19.131 4.40659 18.7777 3.87234 18.7777 3.28083V0.921134C18.777 0.511225 18.4415 0.175781 18.0316 0.175781H13.9325C13.5226 0.175781 13.1872 0.511225 13.1872 0.921134V3.29839C13.1872 3.89973 12.8219 4.44101 12.2641 4.66616L10.5718 5.34899C10.0231 5.57028 9.39545 5.44242 8.97711 5.02409L7.30903 3.356C7.01925 3.06622 6.54471 3.06622 6.25493 3.356L3.35641 6.25451C3.06663 6.54429 3.06663 7.01883 3.35641 7.30861L5.03749 8.9897C5.46286 9.41506 5.5872 10.0561 5.35186 10.6093L4.63812 12.289C4.40665 12.8334 3.8724 13.1868 3.28089 13.1868H0.921195C0.511286 13.1871 0.175842 13.5226 0.175842 13.9325V18.0316C0.175842 18.4415 0.511286 18.7769 0.921195 18.7769H3.29845C3.89979 18.7769 4.44107 19.1422 4.66622 19.7L5.34905 21.3923C5.57034 21.941 5.44248 22.5687 5.02415 22.987L3.35606 24.6551C3.06628 24.9449 3.06628 25.4194 3.35606 25.7092L6.25457 28.6077C6.54436 28.8975 7.01889 28.8975 7.30868 28.6077L8.98976 26.9266C9.41512 26.5013 10.0562 26.3769 10.6094 26.6123L12.2887 27.326C12.8331 27.5575 13.1865 28.0917 13.1865 28.6832V31.0426C13.1865 31.4525 13.5219 31.7879 13.9318 31.7879H18.0309C18.4408 31.7879 18.7763 31.4525 18.7763 31.0426V28.6653C18.7763 28.064 19.1416 27.5227 19.6994 27.2975L21.3917 26.6147C21.9403 26.3934 22.568 26.5213 22.9864 26.9396L24.6545 28.6081C24.9442 28.8978 25.4188 28.8978 25.7086 28.6081L28.6071 25.7095C28.8969 25.4198 28.8969 24.9452 28.6071 24.6554L26.926 22.9744C26.5006 22.549 26.3763 21.908 26.6116 21.3548L27.3254 19.6751C27.5568 19.1306 28.0911 18.7773 28.6826 18.7773H31.0419C31.4518 18.7773 31.7873 18.4418 31.7873 18.0319V13.9328C31.7883 13.5226 31.4529 13.1871 31.043 13.1871ZM15.9821 23.6853C11.7278 23.6853 8.27883 20.2364 8.27883 15.982C8.27883 11.7277 11.7278 8.27877 15.9821 8.27877C20.2364 8.27877 23.6854 11.7277 23.6854 15.982C23.6854 20.2364 20.2364 23.6853 15.9821 23.6853Z" fill="#6E6E6E"/>
<path d="M15.9821 10.2295C19.1539 10.2295 21.7345 12.8102 21.7345 15.982C21.7345 19.1537 19.1539 21.7344 15.9821 21.7344C12.8103 21.7344 10.2297 19.1537 10.2297 15.982C10.2297 12.8102 12.8103 10.2295 15.9821 10.2295ZM15.9821 7.6626C11.3874 7.6626 7.66272 11.3873 7.66272 15.982C7.66272 20.5767 11.3874 24.3013 15.9821 24.3013C20.5768 24.3013 24.3014 20.5767 24.3014 15.982C24.3014 11.3873 20.5768 7.6626 15.9821 7.6626Z" fill="#FF9500"/>
</svg>
